<svg width="40" height="38" viewBox="0 0 40 38" fill="none" xmlns="http://www.w3.org/2000/svg">
<g clip-path="url(#clip0_1_6694)" filter="url(#filter0_d_1_6694)">
<path d="M19.9375 29.1562C21.0766 29.1562 22 28.2328 22 27.0937C22 25.9546 21.0766 25.0312 19.9375 25.0312C18.7984 25.0312 17.875 25.9546 17.875 27.0937C17.875 28.2328 18.7984 29.1562 19.9375 29.1562Z" fill="#10375C"/>
<path d="M26.072 20.0182C24.4457 18.407 22.1146 17.4062 19.9883 17.4062C19.988 17.4062 19.9876 17.4062 19.9873 17.4062H19.8973C19.8969 17.4062 19.8967 17.4062 19.8963 17.4062C17.7699 17.4062 15.4386 18.4071 13.8125 20.0182C13.3221 20.5041 13.3184 21.2955 13.8043 21.786C14.0487 22.0326 14.3705 22.1562 14.6923 22.1562C15.0102 22.1562 15.3283 22.0356 15.572 21.7942C16.7296 20.6472 18.427 19.9062 19.8965 19.9062C19.8966 19.9062 19.8969 19.9062 19.8971 19.9062H19.9875C19.9878 19.9062 19.9878 19.9062 19.9881 19.9062C21.4574 19.9062 23.1548 20.6473 24.3124 21.7942C24.8028 22.28 25.5943 22.2765 26.0801 21.786C26.5661 21.2956 26.5624 20.5041 26.072 20.0182Z" fill="#10375C"/>
<path d="M35.6644 9.67899C31.5563 5.27131 25.9934 2.84381 19.9998 2.84375C14.0066 2.84381 8.44372 5.27131 4.33554 9.67899C3.86492 10.184 3.89273 10.975 4.39773 11.4457C4.90279 11.9163 5.69373 11.8885 6.16441 11.3835C9.79441 7.48874 14.7079 5.34381 20.0002 5.34375C25.2921 5.34381 30.2056 7.48874 33.8355 11.3835C34.0817 11.6476 34.4155 11.7812 34.7502 11.7812C35.0554 11.7812 35.3614 11.6701 35.6022 11.4457C36.1072 10.9749 36.1351 10.184 35.6644 9.67899Z" fill="#10375C"/>
<path d="M31.0746 14.8411C28.0379 11.7815 24.1049 10.0966 19.9999 10.0967C15.8939 10.0967 11.9608 11.7817 8.92507 14.8412C8.43882 15.3313 8.44188 16.1227 8.93194 16.609C9.422 17.0952 10.2134 17.0922 10.6997 16.6021C13.2625 14.0192 16.5654 12.5967 19.9999 12.5967C23.4335 12.5965 26.7363 14.0191 29.3001 16.6022C29.5445 16.8484 29.8658 16.9717 30.1873 16.9717C30.5056 16.9717 30.8241 16.8508 31.068 16.6088C31.5579 16.1225 31.5609 15.3311 31.0746 14.8411Z" fill="#10375C"/>
</g>
<defs>
<filter id="filter0_d_1_6694" x="0" y="0" width="40" height="40" filterUnits="userSpaceOnUse" color-interpolation-filters="sRGB">
<feFlood flood-opacity="0" result="BackgroundImageFix"/>
<feColorMatrix in="SourceAlpha" type="matrix" values="0 0 0 0 0 0 0 0 0 0 0 0 0 0 0 0 0 0 127 0" result="hardAlpha"/>
<feOffset dy="4"/>
<feGaussianBlur stdDeviation="2"/>
<feComposite in2="hardAlpha" operator="out"/>
<feColorMatrix type="matrix" values="0 0 0 0 0 0 0 0 0 0 0 0 0 0 0 0 0 0 0.25 0"/>
<feBlend mode="normal" in2="BackgroundImageFix" result="effect1_dropShadow_1_6694"/>
<feBlend mode="normal" in="SourceGraphic" in2="effect1_dropShadow_1_6694" result="shape"/>
</filter>
<clipPath id="clip0_1_6694">
<rect width="32" height="32" fill="white" transform="translate(4)"/>
</clipPath>
</defs>
</svg>
